<svg xmlns="http://www.w3.org/2000/svg" width="130" height="130" viewBox="0 0 130 130">
  <g id="그룹_1774" data-name="그룹 1774" transform="translate(2665 13708)">
    <rect id="사각형_2330" data-name="사각형 2330" width="130" height="130" transform="translate(-2665 -13708)" fill="none"/>
    <g id="idea-3125_0619768b-3634-4914-9df9-d74d9f152f74" transform="translate(-2635.314 -13680)">
      <path id="layer2" d="M39.742,1c-16.8,0-28.8,6.223-28.8,19.2v12a23.971,23.971,0,0,1-4.8,9.6c-1.041,1.042-1.5,3,1.126,3.73,2.241.624,2.981.443,3.228,2.04s-.68,3.36.668,3.855.079,2.076,1.53,3.291c.94.786-1.151,6.261,4.051,6.261h5.683c2.818,0,2.916,2.007,2.916,4.826s-2.4,7.2-2.4,7.2h33.6s-4.8-4.921-4.8-9.6c0-7.225,14.4-18.567,14.4-38.405C66.146,6.033,51.744,1,39.742,1Z" transform="translate(0 0)" fill="#ebebeb"/>
      <path id="opacity" d="M15.739,29.312v-12A15.962,15.962,0,0,1,22.722,3.456c-7.195,3.023-11.784,8.4-11.784,16.255v12a23.971,23.971,0,0,1-4.8,9.6c-1.041,1.042-1.5,3,1.126,3.73,2.241.624,2.981.443,3.228,2.04s-.68,3.36.668,3.855.079,2.091,1.53,3.306c.94.786-1.151,6.277,4.051,6.277h5.683c2.818-.006,2.916,1.991,2.916,4.809s-2.4,7.187-2.4,7.187h33.6a22.176,22.176,0,0,1-1.959-2.4H27.365s2.4-4.371,2.4-7.187-.1-4.815-2.916-4.815H21.165c-5.2,0-3.111-5.49-4.051-6.277-1.451-1.216-.185-2.808-1.53-3.3s-.422-2.267-.668-3.859a3.937,3.937,0,0,1-1.577-3.369C13.338,38.914,15.739,31.713,15.739,29.312Z" transform="translate(0 0.492)" fill="#000064" opacity="0.15"/>
      <path id="layer1" d="M46.539,14.015A13.179,13.179,0,0,0,25.9,13.943a9.589,9.589,0,0,0,1.672,19.033c.3,0,.593-.062.888-.09a13.132,13.132,0,0,0,15.429.024c.175.01.34.052.516.052a9.593,9.593,0,0,0,2.13-18.947Z" transform="translate(2.535 1.601)" fill="#d82929"/>
      <path id="opacity-2" data-name="opacity" d="M46.254,14.015a13.179,13.179,0,0,0-20.634-.072A9.623,9.623,0,0,0,19.4,17.918a9.6,9.6,0,0,1,3.815-1.575,13.179,13.179,0,0,1,20.634.072A9.58,9.58,0,0,1,49.6,31.24,9.586,9.586,0,0,0,46.25,14.015Z" transform="translate(2.82 1.601)" fill="#fff" opacity="0.25"/>
      <path id="stroke" d="M39.742,1c-16.8,0-28.8,6.223-28.8,19.2v12a23.971,23.971,0,0,1-4.8,9.6c-1.041,1.042-1.5,3,1.126,3.73,2.241.624,2.981.443,3.228,2.04s-.68,3.36.668,3.855.079,2.076,1.53,3.291c.94.786-1.151,6.261,4.051,6.261h5.683c2.818,0,2.916,2.007,2.916,4.826s-2.4,7.2-2.4,7.2h33.6s-4.8-4.921-4.8-9.6c0-7.225,14.4-18.567,14.4-38.405C66.146,6.033,51.744,1,39.742,1Z" transform="translate(0 0)" fill="none" stroke="#2e4369" stroke-linecap="round" stroke-linejoin="round" stroke-width="2"/>
      <path id="stroke-2" data-name="stroke" d="M34.4,15,28,24.6H40l-6,8.922" transform="translate(4.541 -0.198)" fill="none" stroke="#fff" stroke-linecap="round" stroke-linejoin="round" stroke-width="2"/>
      <path id="stroke-3" data-name="stroke" d="M46.539,14.015A13.179,13.179,0,0,0,25.9,13.943a9.589,9.589,0,0,0,1.672,19.033c.3,0,.593-.062.888-.09a13.132,13.132,0,0,0,15.429.024c.175.01.34.052.516.052a9.593,9.593,0,0,0,2.13-18.947Z" transform="translate(2.535 1.601)" fill="none" stroke="#2e4369" stroke-linecap="round" stroke-linejoin="round" stroke-width="2"/>
    </g>
  </g>
</svg>
