<svg xmlns="http://www.w3.org/2000/svg" width="130" height="130" viewBox="0 0 130 130">
  <g id="그룹_1782" data-name="그룹 1782" transform="translate(1296 13708)">
    <rect id="사각형_2338" data-name="사각형 2338" width="130" height="130" transform="translate(-1296 -13708)" fill="none"/>
    <g id="social-3088_86a21caa-591a-4d3f-9cc1-ddadfc4a959f" transform="translate(-1267 -13679)">
      <circle id="layer3" cx="7.995" cy="7.995" r="7.995" transform="translate(28.27 35.98)" fill="#d82929"/>
      <path id="layer3-2" data-name="layer3" d="M33.706,46A13.82,13.82,0,0,0,20,59.706V61.99H47.412V59.706A13.82,13.82,0,0,0,33.706,46Z" transform="translate(2.559 5.971)" fill="#d82929"/>
      <circle id="layer2" cx="6.853" cy="6.853" r="6.853" transform="translate(52.255 4)" fill="#d82929"/>
      <path id="layer2-2" data-name="layer2" d="M64.843,29.706C64.843,21.14,59.7,16,53.422,16S42,21.14,42,29.706Z" transform="translate(5.686 1.706)" fill="#d82929"/>
      <circle id="layer1" cx="6.853" cy="6.853" r="6.853" transform="translate(6.569 4)" fill="#d82929"/>
      <path id="layer1-2" data-name="layer1" d="M24.843,29.706C24.843,21.14,19.7,16,13.422,16S2,21.14,2,29.706Z" transform="translate(0 1.706)" fill="#d82929"/>
      <g id="opacity" transform="translate(2 4.001)" opacity="0.15">
        <path id="패스_602" data-name="패스 602" d="M35.283,32.343a8,8,0,1,0,0,15.3,8,8,0,0,1,0-15.3Z" transform="translate(1.266 -0.021)" fill="#000064"/>
        <path id="패스_603" data-name="패스 603" d="M22.559,65.676v2.284h4.569V65.676A13.706,13.706,0,0,1,38.549,52.2l-2.284-.228A13.82,13.82,0,0,0,22.559,65.676ZM56.824,10.853a6.853,6.853,0,0,1,4.569-6.51,6.853,6.853,0,1,0-2.284,13.363c-6.282,0-11.422,4.569-11.422,13.706h4.569c0-8,3.883-12.45,9.137-13.477l-2.284-.228a6.853,6.853,0,0,0,2.284-.343,6.853,6.853,0,0,1-4.569-6.51Zm-41.118,6.4a6.853,6.853,0,0,1,0-12.906,6.853,6.853,0,1,0-2.284,13.363C7.14,17.706,2,22.274,2,31.412H6.569c0-8,3.883-12.45,9.137-13.477l-2.284-.228a6.853,6.853,0,0,0,2.284-.457Z" transform="translate(-2 -4.001)" fill="#000064"/>
      </g>
      <circle id="stroke" cx="7.995" cy="7.995" r="7.995" stroke-width="2" transform="translate(28.27 35.98)" stroke="#2e4369" stroke-linecap="round" stroke-linejoin="round" fill="none"/>
      <circle id="stroke-2" data-name="stroke" transform="translate(36.265 51.971)" stroke-width="2" stroke="#2e4369" stroke-linecap="round" stroke-linejoin="round" fill="none"/>
      <path id="stroke-3" data-name="stroke" d="M33.706,46A13.82,13.82,0,0,0,20,59.706V61.99H47.412V59.706A13.82,13.82,0,0,0,33.706,46Z" transform="translate(2.559 5.971)" fill="none" stroke="#2e4369" stroke-linecap="round" stroke-linejoin="round" stroke-width="2"/>
      <circle id="stroke-4" data-name="stroke" cx="6.853" cy="6.853" r="6.853" transform="translate(52.255 4)" stroke-width="2" stroke="#2e4369" stroke-linecap="round" stroke-linejoin="round" fill="none"/>
      <path id="stroke-5" data-name="stroke" d="M64.843,29.706C64.843,21.14,59.7,16,53.422,16S42,21.14,42,29.706Z" transform="translate(5.686 1.706)" fill="none" stroke="#2e4369" stroke-linecap="round" stroke-linejoin="round" stroke-width="2"/>
      <circle id="stroke-6" data-name="stroke" cx="6.853" cy="6.853" r="6.853" transform="translate(6.569 4)" stroke-width="2" stroke="#2e4369" stroke-linecap="round" stroke-linejoin="round" fill="none"/>
      <path id="stroke-7" data-name="stroke" d="M24.843,29.99c0-8.566-5.14-13.706-11.422-13.706S2,21.424,2,29.99ZM13.422,36.843l9.137,9.137m36.549-9.137L49.971,45.98M27.128,14H45.4" transform="translate(0 1.422)" fill="none" stroke="#2e4369" stroke-linecap="round" stroke-linejoin="round" stroke-width="2"/>
    </g>
  </g>
</svg>
