<svg xmlns="http://www.w3.org/2000/svg" width="130" height="130" viewBox="0 0 130 130">
  <g id="그룹_1769" data-name="그룹 1769" transform="translate(3355 13708)">
    <rect id="사각형_2326" data-name="사각형 2326" width="130" height="130" transform="translate(-3355 -13708)" fill="none"/>
    <g id="customer-support-4912_8ebace39-dfca-496c-a15f-7fbe94c2bfc3" transform="translate(-3325 -13679)">
      <path id="layer5" d="M27.08,4.4c.113,2.38,0,13.487-9.067,16.547V28.88c0,6.913,2.72,12.807,6.8,16.433V49.28c0,1.927.453,4.647-6.913,6.8l11.447,13.6h9.067l10.88-13.6c-7.14-2.153-6.347-4.873-6.347-6.8V43.613c2.267,0,6.8-3.4,6.8-7.933V19.813C29.347,19.813,27.307,7.007,27.08,4.4Z" transform="translate(2.12 0.32)" fill="#ffe1e1"/>
      <path id="layer4" d="M41.067,39.287A3.287,3.287,0,0,0,37.78,36H35.287A3.287,3.287,0,0,0,32,39.287,3.4,3.4,0,0,0,35.287,42.8h2.38a3.4,3.4,0,0,0,3.4-3.513Z" transform="translate(4 4.533)" fill="#536897"/>
      <path id="layer3" d="M56.6,20H50.933v6.8s0,3.513.34,7.933H56.6a3.74,3.74,0,0,0,3.4-3.4V23.4A3.74,3.74,0,0,0,56.6,20ZM19.2,20H12.4A3.74,3.74,0,0,0,9,23.4v7.933a3.74,3.74,0,0,0,3.4,3.4h5.893c.68-4.307.907-7.933.907-7.933Z" transform="translate(0.933 2.4)" fill="#d82929"/>
      <path id="opacity" d="M56.6,29.933H51.273c-.34-4.307-.34-7.933-.34-7.933v4.533s0,3.513.34,7.933H56.6a3.74,3.74,0,0,0,3.4-3.4V26.533a3.74,3.74,0,0,1-3.4,3.4Zm-38.307,0H12.4a3.74,3.74,0,0,1-3.4-3.4v4.533a3.74,3.74,0,0,0,3.4,3.4h5.893c.68-4.307.907-7.933.907-7.933V22S18.973,25.513,18.293,29.933Z" transform="translate(0.933 2.667)" fill="#000064" opacity="0.14"/>
      <path id="layer1" d="M33.867,2C26.387,2,18,6.08,18,17.867v3.4C27.067,18.207,27.18,7.1,27.067,4.72v0c.227,2.607,2.267,15.413,22.667,15.413V17.867C49.733,6.08,41.347,2,33.867,2Z" transform="translate(2.133)" fill="#e27250"/>
      <path id="layer2" d="M68.867,63.6a16.207,16.207,0,0,0-12.92-12.467L51.413,50,40.533,63.6ZM15.147,51.133A16.547,16.547,0,0,0,2,63.6H31.467L20.02,50Z" transform="translate(0 6.4)" fill="#ebebeb"/>
      <path id="layer1-2" data-name="layer1" d="M25.467,46.4V42.433c-4.08-3.627-6.8-9.52-6.8-16.433,0,0-1.133,18.133-5.667,22.667A12.24,12.24,0,0,0,18.553,53.2C25.92,51.047,25.467,48.327,25.467,46.4Zm29.467,2.267C50.4,44.133,50.4,26,50.4,26v6.8c0,4.533-4.533,7.933-6.8,7.933V46.4c0,1.927-.793,4.647,6.12,6.8A12.127,12.127,0,0,0,54.933,48.667Z" transform="translate(1.467 3.2)" fill="#e27250"/>
      <path id="opacity-2" data-name="opacity" d="M25.467,46.4V42.433c-4.08-3.627-6.8-9.52-6.8-16.433,0,0-1.133,18.133-5.667,22.667A12.24,12.24,0,0,0,18.553,53.2C25.92,51.047,25.467,48.327,25.467,46.4Zm29.467,2.267C50.4,44.133,50.4,26,50.4,26v6.8c0,4.533-4.533,7.933-6.8,7.933V46.4c0,1.927-.793,4.647,6.12,6.8A12.127,12.127,0,0,0,54.933,48.667Z" transform="translate(1.467 3.2)" fill="#000064" opacity="0.14"/>
      <path id="opacity-3" data-name="opacity" d="M33.733,47.253c-7.933-2.267-9.067-10.2-9.067-14.733V18.92c0-3.4,0-14.62,6.347-16.32-5.78,1.473-10.88,6.007-10.88,15.187V29.12c0,6.913,2.72,12.807,6.8,16.433V49.52c0,1.927.453,4.647-6.913,6.8l-4.873,1.133A16.547,16.547,0,0,0,2,69.92H9.933c0-2.267,1.133-5.667,10.2-9.067s10.2-7.933,10.2-7.933,2.267,2.267,6.8,0,4.987-5.667,4.987-5.667l2.947-3.4H37.133A3.627,3.627,0,0,0,33.733,47.253Z" transform="translate(0 0.08)" fill="#000064" opacity="0.14"/>
      <path id="stroke" d="M26.933,45.367v3.967c0,2.267.68,5.667-11.787,7.933A16.547,16.547,0,0,0,2,69.733H68.867a16.207,16.207,0,0,0-12.92-12.467C43.933,55,45.067,51.6,45.067,49.333V43.667m7.253-6.8h5.213a3.74,3.74,0,0,0,3.4-3.4V25.533a3.74,3.74,0,0,0-3.4-3.4H51.867m-31.733,0h-6.8a3.74,3.74,0,0,0-3.4,3.4v7.933a3.74,3.74,0,0,0,3.4,3.4h5.893m32.64-17C29.2,19.867,29.2,4,29.2,4s1.133,13.6-9.067,17m20.4,48.733,10.88-13.6m-31.393,0,11.447,13.6" transform="translate(0 0.267)" fill="none" stroke="#2e4369" stroke-linecap="round" stroke-linejoin="round" stroke-miterlimit="10" stroke-width="2"/>
      <path id="stroke-2" data-name="stroke" d="M18.553,53.2A12.24,12.24,0,0,1,13,48.667C17.533,44.133,18.667,26,18.667,26M50.4,26s0,18.133,4.533,22.667A12.127,12.127,0,0,1,49.607,53.2" transform="translate(1.467 3.2)" fill="none" stroke="#2e4369" stroke-linecap="round" stroke-linejoin="round" stroke-miterlimit="10" stroke-width="2"/>
      <path id="stroke-3" data-name="stroke" d="M27.067,47.333C21.74,44.047,18,37.36,18,29.2V17.867C18,6.08,26.387,2,33.867,2S49.733,6.08,49.733,17.867V36c0,4.533-4.533,7.933-6.8,7.933" transform="translate(2.133)" fill="none" stroke="#2e4369" stroke-linecap="round" stroke-linejoin="round" stroke-miterlimit="10" stroke-width="2"/>
      <path id="stroke-4" data-name="stroke" d="M41.067,39.287A3.287,3.287,0,0,0,37.78,36H35.287A3.287,3.287,0,0,0,32,39.287,3.4,3.4,0,0,0,35.287,42.8h2.38a3.4,3.4,0,0,0,3.4-3.513Z" transform="translate(4 4.533)" fill="none" stroke="#2e4369" stroke-linecap="round" stroke-linejoin="round" stroke-miterlimit="10" stroke-width="2"/>
    </g>
  </g>
</svg>
