<svg xmlns="http://www.w3.org/2000/svg" width="130" height="130" viewBox="0 0 130 130">
  <g id="그룹_1775" data-name="그룹 1775" transform="translate(2495 13708)">
    <rect id="사각형_2331" data-name="사각형 2331" width="130" height="130" transform="translate(-2495 -13708)" fill="none"/>
    <g id="imac-screen-2078_8fe744ec-d7c5-449b-b3d3-b3308c4da3ec" transform="translate(-2463 -13676)">
      <path id="layer2" d="M64.153,41.292V6.072A2.072,2.072,0,0,0,62.082,4H4.072A2.072,2.072,0,0,0,2,6.072v35.22" fill="#7b8baf"/>
      <path id="layer1" d="M2,40v8.287a2.072,2.072,0,0,0,2.072,2.072h58.01a2.072,2.072,0,0,0,2.072-2.072V40Z" transform="translate(0 1.292)" fill="#ebebeb"/>
      <path id="opacity" d="M6.144,49.579V6.072A2.072,2.072,0,0,1,8.215,4H4.072A2.072,2.072,0,0,0,2,6.072V49.579a2.072,2.072,0,0,0,2.072,2.072H8.215A2.072,2.072,0,0,1,6.144,49.579Z" fill="#000064" opacity="0.1"/>
      <path id="opacity-2" data-name="opacity" d="M58.687,4H47.292L10,41.292H21.395Zm5.179,37.292V19.538L42.113,41.292Z" transform="translate(0.287)" fill="#fff" opacity="0.25"/>
      <path id="stroke" d="M64.153,41.292V6.072A2.072,2.072,0,0,0,62.082,4H4.072A2.072,2.072,0,0,0,2,6.072v35.22m0,0v8.287a2.072,2.072,0,0,0,2.072,2.072h58.01a2.072,2.072,0,0,0,2.072-2.072V41.292ZM22.718,62.01H43.436M33.077,51.651V62.01" fill="none" stroke="#2e4369" stroke-linecap="round" stroke-linejoin="round" stroke-width="2"/>
    </g>
  </g>
</svg>
