<svg xmlns="http://www.w3.org/2000/svg" width="130" height="130" viewBox="0 0 130 130">
  <g id="그룹_2457" data-name="그룹 2457" transform="translate(11047 -4988)">
    <g id="world-map-929_730f85f7-efe7-4f65-90da-abcb70c5594e" transform="translate(-11023 5011)">
      <path id="layer3" d="M74.894,35.959a60.517,60.517,0,0,1-4.1,5.087S57.655,26.633,56.666,14.2a36.737,36.737,0,1,0,18.228,21.76Z" transform="translate(-3.066 1.344)" fill="#87d3ff"/>
      <path id="opacity" d="M46.726,76.254A36.738,36.738,0,0,1,20.444,13.8a36.738,36.738,0,1,0,45.5,57.084A36.6,36.6,0,0,1,46.726,76.254Z" transform="translate(-3.017 2.873)" fill="#000032" opacity="0.2"/>
      <path id="layer2" d="M48.158,37.716a14.554,14.554,0,0,0,10.6-4.38l.989-.989a57.509,57.509,0,0,1-6.076-11.3,27.27,27.27,0,0,1-1.978-7.63L48.724,12c-8.2,3.956-13.989,4.38-13.989,9.467s7.348,2.119,7.348,7.348-5.652,8.9-9.75,6.217-9.75-4.239-14.7,2.543-1.7,14.7,1.837,14.554,6.782-3.391,8.2.706,1.837,4.239,3.391,5.087,1.7,2.685,1.13,5.087,2.543,9.75,4.945,9.75,4.663-.989,4.945-4.945,3.25-4.1,4.663-5.228-.989-5.228,1.554-7.913,8.054-7.63,3.532-8.9-4.239-2.119-4.945-4.1S44.343,37.858,48.158,37.716Z" transform="translate(1.909 2.13)" fill="#3db47b"/>
      <path id="layer1" d="M55.13,2A14.13,14.13,0,0,0,41,16.13v1.413c.989,12.434,14.13,26.847,14.13,26.847a60.517,60.517,0,0,0,4.1-5.087C63.467,33.651,69.26,24.325,69.26,16.13A14.13,14.13,0,0,0,55.13,2Zm0,16.956a2.826,2.826,0,1,1,2.826-2.826A2.826,2.826,0,0,1,55.13,18.956ZM45.663,30.966Z" transform="translate(12.6 -2)" fill="#d82929"/>
      <path id="opacity-2" data-name="opacity" d="M48.145,26.3l-.989.989A13.423,13.423,0,0,1,43.2,30.115a76.725,76.725,0,0,0,5.369,7.065s1.7-1.837,3.956-4.8c-1.13-1.413-2.685-3.532-4.38-5.935Z" transform="translate(13.509 8.035)" fill="#000032" opacity="0.2"/>
      <path id="layer1-2" data-name="layer1" d="M42.532,17.087ZM42.109,15.109Zm-1.7-2.543L39,12Z" transform="translate(11.774 2.13)" fill="#f26161"/>
      <path id="opacity-3" data-name="opacity" d="M39.685,12.248,37.424,11.4A14.272,14.272,0,0,0,37,13.378Z" transform="translate(10.948 1.882)" fill="#000032" opacity="0.2"/>
      <path id="layer1-3" data-name="layer1" d="M42.009,13.413c0,.565.141,1.13.141,1.7A7.774,7.774,0,0,1,42.009,13.413Zm-1.554-.848,1.554.706Zm9.467,19.64a49.17,49.17,0,0,1-3.25-5.369A49.17,49.17,0,0,0,49.921,32.206ZM38.9,12Zm4.8,8.9a32.64,32.64,0,0,1-1.13-3.674,41.4,41.4,0,0,0,3.956,9.75A48.185,48.185,0,0,1,43.7,20.9ZM42.15,15.391l.424,1.7Z" transform="translate(11.733 2.13)" fill="#f26161"/>
      <path id="opacity-4" data-name="opacity" d="M50.706,32.206a49.17,49.17,0,0,1-3.25-5.369,41.4,41.4,0,0,1-3.956-9.75l-.424-1.7v-.283a6.879,6.879,0,0,1-.141-1.7l-1.7-.848L39.826,12l-2.543,1.13a14.27,14.27,0,0,0-.283,1.7v1.413c.565,7.065,4.945,14.7,8.619,20.064a13.424,13.424,0,0,0,3.956-2.826Z" transform="translate(10.948 2.13)" fill="#000032" opacity="0.2"/>
      <path id="stroke" d="M74.894,35.959A36.738,36.738,0,1,1,56.666,14.2M53.7,12.786c-8.2,3.956-13.989,4.38-13.989,9.467s7.348,2.119,7.348,7.348-5.652,8.9-9.75,6.217-9.75-4.239-14.7,2.543-1.7,14.7,1.837,14.554,6.782-3.391,8.337.848S34.624,58,36.178,58.849s1.7,2.685,1.13,5.087,2.543,9.75,4.945,9.75S46.917,72.7,47.2,68.74s3.25-4.1,4.663-5.228-.989-5.228,1.554-7.913,8.054-7.63,3.532-8.9S52.71,44.578,52,42.6s-2.543-3.956,1.272-4.1a14.554,14.554,0,0,0,10.456-4.38l.989-.989" transform="translate(-3.066 1.344)" fill="none" stroke="#2e4369" stroke-linecap="round" stroke-linejoin="round" stroke-width="2"/>
      <path id="stroke-2" data-name="stroke" d="M55.13,2A14.13,14.13,0,0,0,41,16.13c0,12.717,14.13,28.26,14.13,28.26S69.26,28.847,69.26,16.13A14.13,14.13,0,0,0,55.13,2Z" transform="translate(12.6 -2)" fill="none" stroke="#2e4369" stroke-linecap="round" stroke-linejoin="round" stroke-width="2"/>
      <ellipse id="stroke-3" data-name="stroke" cx="2.826" cy="2.826" rx="2.826" ry="2.826" transform="translate(64.904 11.304)" fill="none" stroke="#2e4369" stroke-linecap="round" stroke-linejoin="round" stroke-width="2"/>
    </g>
    <rect id="사각형_2371" data-name="사각형 2371" width="130" height="130" transform="translate(-11047 4988)" fill="none"/>
    <rect id="사각형_2370" data-name="사각형 2370" width="130" height="130" transform="translate(-11047 4988)" fill="none"/>
  </g>
</svg>
