<svg xmlns="http://www.w3.org/2000/svg" width="76" height="76" viewBox="0 0 76 76">
  <g id="new-sticker-2620_61ab9b62-aae8-480c-bdea-526d017d33e8" transform="translate(-1 -1)">
    <path id="layer2" d="M39,2A37,37,0,1,0,76,39" fill="#ebebeb"/>
    <path id="opacity" d="M71.041,39s-22.817,20.35-40.7,2.467S34.041,2,34.041,2Z" transform="translate(4.959)" fill="#000064" opacity="0.15"/>
    <path id="layer1" d="M69.178,39l-37-37C27.245,29.133,42.045,43.933,69.178,39Z" transform="translate(6.822)" fill="#fc6"/>
    <path id="opacity-2" data-name="opacity" d="M69.178,39l-37-37C27.245,29.133,42.045,43.933,69.178,39Z" transform="translate(6.822)" fill="#d82929"/>
    <path id="stroke" d="M39,2A37,37,0,1,0,76,39M11.867,47.633V31.6L21.61,46.4h.123V30.367" fill="none" stroke="#2e4369" stroke-linecap="round" stroke-linejoin="round" stroke-width="2"/>
    <path id="stroke-2" data-name="stroke" d="M33.867,26.187H24v14.8h9.867m-2.467-7.4H24m26.763-.493,2.59,7.893h.74l1.85-6.783m-17.267-9,4.317,15.787h.493l3.33-9.373" transform="translate(5.133 5.413)" fill="none" stroke="#2e4369" stroke-linecap="round" stroke-linejoin="round" stroke-width="2"/>
    <path id="stroke-3" data-name="stroke" d="M69.178,39l-37-37C27.245,29.133,42.045,43.933,69.178,39Z" transform="translate(6.822)" fill="none" stroke="#2e4369" stroke-linecap="round" stroke-linejoin="round" stroke-width="2"/>
  </g>
</svg>
