<svg xmlns="http://www.w3.org/2000/svg" width="130" height="130" viewBox="0 0 130 130">
  <g id="그룹_1766" data-name="그룹 1766" transform="translate(3894 13708)">
    <rect id="사각형_2323" data-name="사각형 2323" width="130" height="130" transform="translate(-3894 -13708)" fill="none"/>
    <g id="computer-network-2162_7510554f-2cfd-440e-8dfb-9c089792354d" transform="translate(-3873 -13685)">
      <path id="layer2" d="M34.462,58.154H4V36H34.462Z" transform="translate(0.769 11.538)" fill="#7b8baf"/>
      <path id="layer1" d="M4.769,52,2,57.538v2.769H38V57.538L35.231,52" transform="translate(0 17.692)" fill="#ebebeb"/>
      <path id="layer2-2" data-name="layer2" d="M51.462,28.154H21V6H51.462Z" transform="translate(7.308)" fill="#7b8baf"/>
      <path id="layer1-2" data-name="layer1" d="M21.769,22,19,27.538v2.769H55V27.538L52.231,22" transform="translate(6.538 6.154)" fill="#ebebeb"/>
      <path id="layer2-3" data-name="layer2" d="M68.462,58.154H38V36H68.462Z" transform="translate(13.846 11.538)" fill="#7b8baf"/>
      <path id="layer1-3" data-name="layer1" d="M38.769,52,36,57.538v2.769H72V57.538L69.231,52" transform="translate(13.077 17.692)" fill="#ebebeb"/>
      <path id="opacity" d="M23.385,45.615,4,65v2.769H16.462l18-18V45.615ZM42.769,26.231H58V11ZM81.538,45.615H67.692L51.077,62.231v5.538H64.923L81.538,51.154Z" transform="translate(0.769 1.923)" fill="#fff" opacity="0.25"/>
      <path id="stroke" d="M35.231,69.692H4.769V47.538H35.231Zm-30.462,0L2,75.231V78H38V75.231l-2.769-5.538M58.769,28.154H28.308V6H58.769Zm-30.462,0-2.769,5.538v2.769h36V33.692l-2.769-5.538M82.308,69.692H51.846V47.538H82.308Zm-30.462,0-2.769,5.538V78h36V75.231l-2.769-5.538" fill="none" stroke="#2e4369" stroke-linecap="round" stroke-linejoin="round" stroke-width="2"/>
    </g>
  </g>
</svg>
