<svg xmlns="http://www.w3.org/2000/svg" width="130" height="130" viewBox="0 0 130 130">
  <g id="그룹_1770" data-name="그룹 1770" transform="translate(3177 13708)">
    <rect id="사각형_2327" data-name="사각형 2327" width="130" height="130" transform="translate(-3177 -13708)" fill="none"/>
    <g id="design-1713_fba09d5b-be82-4646-8c0e-946be9230c23" transform="translate(-3149.8 -13680.775)">
      <path id="layer5" d="M30.5,43.6,53.795,67.016,66.816,53.995,43.521,30.7" transform="translate(5.391 5.435)" fill="#d2d2d2"/>
      <path id="opacity" d="M30.5,43.6l5.376,5.5L48.9,36.076,43.521,30.7" transform="translate(5.391 5.435)" fill="#000028" opacity="0.15"/>
      <path id="layer5-2" data-name="layer5" d="M39.355,26.434,15.7,2.9,2.8,15.682,26.334,39.455" transform="translate(0 0.024)" fill="#d2d2d2"/>
      <path id="layer4" d="M46.813,10.293l7.518-7.518,9.588,9.587L56.4,19.881Z" transform="translate(8.565)" fill="#424242"/>
      <path id="layer3" d="M10.21,52.749,53.883,9.078l9.587,9.587L19.8,62.337Z" transform="translate(1.442 1.227)" fill="red"/>
      <path id="layer2" d="M20.713,55.257,11.156,45.7,5.9,57.527l2.987,2.987Z" transform="translate(0.603 8.354)" fill="#fddab3"/>
      <path id="layer1" d="M3.9,60.976l5.376-2.389L6.289,55.6,3.9,60.976Z" transform="translate(0.214 10.28)" fill="#2e4369"/>
      <path id="opacity-2" data-name="opacity" d="M62.587,17.664,59,14.2,15.4,57.923l3.464,3.464L62.587,17.664Z" transform="translate(2.452 2.223)" fill="#000028" opacity="0.15"/>
      <path id="stroke" d="M39.355,26.434,15.7,2.9,2.8,15.682,26.334,39.455M11.76,54.029l-7.646,17.2,17.2-7.646L11.76,54.029Zm53.28-34.166,7.526-7.407L63.008,2.9l-7.526,7.407" transform="translate(0 0.024)" fill="none" stroke="#2e4369" stroke-linecap="round" stroke-linejoin="round" stroke-width="2"/>
      <path id="stroke-2" data-name="stroke" d="M10.3,52.823,54.023,9.1l9.557,9.557L19.857,62.38" transform="translate(1.46 1.231)" fill="none" stroke="#2e4369" stroke-linecap="round" stroke-linejoin="round" stroke-width="2"/>
      <path id="stroke-3" data-name="stroke" d="M34.567,46.463,57.862,69.877,70.884,56.856,47.589,33.561M50.1,61.993l6.57-6.57M17.126,28.9l7.168-7.287M42.93,54.825l5.376-5.376M9.6,21.256,14.856,16" transform="translate(1.323 2.574)" fill="none" stroke="#2e4369" stroke-linecap="round" stroke-linejoin="round" stroke-width="2"/>
    </g>
  </g>
</svg>
