<svg xmlns="http://www.w3.org/2000/svg" width="130" height="130" viewBox="0 0 130 130">
  <g id="그룹_1767" data-name="그룹 1767" transform="translate(3713 13708)">
    <rect id="사각형_2324" data-name="사각형 2324" width="130" height="130" transform="translate(-3713 -13708)" fill="none"/>
    <g id="conference-3087_b437162c-4a13-47fa-9e1e-8be0b86146f6" transform="translate(-3686 -13681)">
      <circle id="layer2" cx="7.226" cy="7.226" r="7.226" transform="translate(52.585 3)" fill="#78d1f4"/>
      <circle id="layer1" cx="7.226" cy="7.226" r="7.226" transform="translate(9.226 3)" fill="#a5d0ec"/>
      <circle id="layer3" cx="7.226" cy="7.226" r="7.226" transform="translate(30.906 7.818)" fill="#d82929"/>
      <path id="layer3-2" data-name="layer3" d="M45.293,25H23.613A3.613,3.613,0,0,0,20,28.613V45.475a3.613,3.613,0,0,0,3.613,3.613h3.613V64.746a3.613,3.613,0,0,0,3.613,3.613h7.226a3.613,3.613,0,0,0,3.613-3.613V49.088h3.613a3.613,3.613,0,0,0,3.613-3.613V28.613A3.613,3.613,0,0,0,45.293,25Z" transform="translate(3.679 4.497)" fill="#d82929"/>
      <path id="opacity" d="M34.453,21.412a7.226,7.226,0,0,0,5.661-2.65L38.066,19A7.226,7.226,0,0,1,32.405,7.2a7.226,7.226,0,0,0,2.048,14.212ZM30.84,65.975V50.318H27.226A3.613,3.613,0,0,1,23.613,46.7V29.843a3.613,3.613,0,0,1,.241-1.2h-.241A3.613,3.613,0,0,0,20,32.252V49.114a3.613,3.613,0,0,0,3.613,3.613h3.613V68.384A3.613,3.613,0,0,0,30.84,72h7.226a3.613,3.613,0,0,0,3.372-2.409H34.453a3.613,3.613,0,0,1-3.613-3.613Z" transform="translate(3.679 0.859)" fill="#000064" opacity="0.15"/>
      <path id="layer2-2" data-name="layer2" d="M63.293,21H41.613A3.613,3.613,0,0,0,38,24.613v1.2h3.613a3.613,3.613,0,0,1,3.613,3.613V60.746a3.613,3.613,0,0,0,3.613,3.613h7.226a3.613,3.613,0,0,0,3.613-3.613V45.088h3.613a3.613,3.613,0,0,0,3.613-3.613V24.613A3.613,3.613,0,0,0,63.293,21Z" transform="translate(7.359 3.679)" fill="#78d1f4"/>
      <circle id="opacity-2" data-name="opacity" cx="7.226" cy="7.226" r="7.226" transform="translate(52.585 3)" fill="#d2d2d2"/>
      <path id="opacity-3" data-name="opacity" d="M63.293,21H41.613A3.613,3.613,0,0,0,38,24.613v1.2h3.613a3.613,3.613,0,0,1,3.613,3.613V60.746a3.613,3.613,0,0,0,3.613,3.613h7.226a3.613,3.613,0,0,0,3.613-3.613V45.088h3.613a3.613,3.613,0,0,0,3.613-3.613V24.613A3.613,3.613,0,0,0,63.293,21Z" transform="translate(7.359 3.679)" fill="#d2d2d2"/>
      <path id="layer1-2" data-name="layer1" d="M27.293,25.818h3.975l-.361-1.2A3.613,3.613,0,0,0,27.293,21H5.613A3.613,3.613,0,0,0,2,24.613V41.475a3.613,3.613,0,0,0,3.613,3.613H9.226V60.746a3.613,3.613,0,0,0,3.613,3.613h7.226a3.613,3.613,0,0,0,3.613-3.613V29.431a3.613,3.613,0,0,1,3.613-3.613Z" transform="translate(0 3.679)" fill="#a5d0ec"/>
      <circle id="opacity-4" data-name="opacity" cx="7.226" cy="7.226" r="7.226" transform="translate(9.226 3)" fill="#9b9b9b"/>
      <path id="opacity-5" data-name="opacity" d="M27.293,25.818h3.975l-.361-1.2A3.613,3.613,0,0,0,27.293,21H5.613A3.613,3.613,0,0,0,2,24.613V41.475a3.613,3.613,0,0,0,3.613,3.613H9.226V60.746a3.613,3.613,0,0,0,3.613,3.613h7.226a3.613,3.613,0,0,0,3.613-3.613V29.431a3.613,3.613,0,0,1,3.613-3.613Z" transform="translate(0 3.679)" fill="#9b9b9b"/>
      <circle id="stroke" cx="7.226" cy="7.226" r="7.226" stroke-width="2" transform="translate(52.585 3)" stroke="#2e4369" stroke-linecap="round" stroke-linejoin="round" fill="none"/>
      <path id="stroke-2" data-name="stroke" d="M45.226,45.088V60.746a3.613,3.613,0,0,0,3.613,3.613h7.226a3.613,3.613,0,0,0,3.613-3.613V45.088h3.613a3.613,3.613,0,0,0,3.613-3.613V24.613A3.613,3.613,0,0,0,63.293,21H41.613A3.613,3.613,0,0,0,38,24.613v1.2" transform="translate(7.359 3.679)" fill="none" stroke="#2e4369" stroke-linecap="round" stroke-linejoin="round" stroke-width="2"/>
      <circle id="stroke-3" data-name="stroke" cx="7.226" cy="7.226" r="7.226" transform="translate(9.226 3)" stroke-width="2" stroke="#2e4369" stroke-linecap="round" stroke-linejoin="round" fill="none"/>
      <path id="stroke-4" data-name="stroke" d="M30.906,24.613A3.613,3.613,0,0,0,27.293,21H5.613A3.613,3.613,0,0,0,2,24.613V41.475a3.613,3.613,0,0,0,3.613,3.613H9.226V60.746a3.613,3.613,0,0,0,3.613,3.613h7.226a3.613,3.613,0,0,0,3.613-3.613V45.088" transform="translate(0 3.679)" fill="none" stroke="#2e4369" stroke-linecap="round" stroke-linejoin="round" stroke-width="2"/>
      <circle id="stroke-5" data-name="stroke" cx="7.226" cy="7.226" r="7.226" transform="translate(30.906 7.818)" stroke-width="2" stroke="#2e4369" stroke-linecap="round" stroke-linejoin="round" fill="none"/>
      <path id="stroke-6" data-name="stroke" d="M45.293,25H23.613A3.613,3.613,0,0,0,20,28.613V45.475a3.613,3.613,0,0,0,3.613,3.613h3.613V64.746a3.613,3.613,0,0,0,3.613,3.613h7.226a3.613,3.613,0,0,0,3.613-3.613V49.088h3.613a3.613,3.613,0,0,0,3.613-3.613V28.613A3.613,3.613,0,0,0,45.293,25Z" transform="translate(3.679 4.497)" fill="none" stroke="#2e4369" stroke-linecap="round" stroke-linejoin="round" stroke-width="2"/>
    </g>
  </g>
</svg>
