<svg xmlns="http://www.w3.org/2000/svg" width="130" height="130" viewBox="0 0 130 130">
  <g id="그룹_1784" data-name="그룹 1784" transform="translate(884 13708)">
    <rect id="사각형_2340" data-name="사각형 2340" width="130" height="130" transform="translate(-884 -13708)" fill="none"/>
    <g id="verify-user-3032_1fc8aeda-1922-4977-bef0-06bd2939df7f" transform="translate(-857 -13686.979)">
      <circle id="layer2" cx="19.482" cy="19.482" r="19.482" transform="translate(46.53 46.538)" fill="#d82929"/>
      <path id="opacity" d="M57.617,67.732A19.482,19.482,0,0,1,41.893,36.7,19.482,19.482,0,1,0,69.167,63.974,19.343,19.343,0,0,1,57.617,67.732Z" transform="translate(12.569 13.595)" fill="#fff" opacity="0.15"/>
      <path id="layer1" d="M49.174,56.279c-4.592-1.392-5.427-4.035-5.427-5.566V47.93a19.621,19.621,0,0,0,5.566-9.741c3.479,0,5.566-4.175,5.566-8.349,0-1.113,0-5.566-2.783-5.566C59.054,4.1,38.737-3.558,24.265,6.183c-6.123,0-7.793,9.184-5.566,18.09-2.783,0-2.783,4.453-2.783,5.566,0,4.175,2.087,8.349,5.566,8.349a18.925,18.925,0,0,0,5.566,9.741v2.783c0,2.226-.7,5.01-11.967,7.236A16.232,16.232,0,0,0,2,70.194H46.947a19.343,19.343,0,0,1,2.226-13.916Z" transform="translate(0 0)" fill="#ebebeb"/>
      <path id="opacity-2" data-name="opacity" d="M46.947,70.174a19.343,19.343,0,0,1,2.226-13.915l-.7-.278c-6.262,2.226-8.349,7.514-9.741,14.194h8.21Zm-19.9-32.006c1.113,4.175,5.705,7.375,8.349,9.741v2.783c0,2.226-.7,5.01-11.967,7.236A16.232,16.232,0,0,0,10.349,70.174H2s0-9.741,13.081-12.246,11.967-5.01,11.967-7.236V47.91a18.925,18.925,0,0,1-5.566-9.741c-3.479,0-5.566-4.175-5.566-8.349,0-1.113,0-5.566,2.783-5.566-2.226-8.906-.557-18.09,5.566-18.09A23.239,23.239,0,0,1,41.659,2.406a24.769,24.769,0,0,0-9.045,3.757c-6.123,0-10.576,9.184-8.349,18.09C24.265,24.253,24.265,35.386,27.048,38.169Z" transform="translate(0 0.02)" fill="#000064" opacity="0.15"/>
      <path id="stroke" d="M49.174,56.279c-4.592-1.392-5.427-4.035-5.427-5.566V47.93a19.621,19.621,0,0,0,5.566-9.741c3.479,0,5.566-4.175,5.566-8.349,0-1.113,0-5.566-2.783-5.566C59.054,4.1,38.737-3.558,24.265,6.183c-6.123,0-7.793,9.184-5.566,18.09-2.783,0-2.783,4.453-2.783,5.566,0,4.175,2.087,8.349,5.566,8.349a19.76,19.76,0,0,0,5.566,9.741v2.783c0,2.226-.7,5.01-11.967,7.236A16.232,16.232,0,0,0,2,70.194H46.947m27.414-9.741L64.62,71.586l-1.448-1.448L59.054,66.02" transform="translate(0 0)" fill="none" stroke="#2e4369" stroke-linecap="round" stroke-linejoin="round" stroke-width="2"/>
      <circle id="stroke-2" data-name="stroke" cx="19.482" cy="19.482" r="19.482" transform="translate(46.53 46.538)" stroke-width="2" stroke="#2e4369" stroke-linecap="round" stroke-linejoin="round" fill="none"/>
    </g>
  </g>
</svg>
