<svg xmlns="http://www.w3.org/2000/svg" width="37.732" height="78.568" viewBox="0 0 37.732 78.568">
  <g id="person-3084_5510d19c-675b-4c1f-8347-de2e6724377a" transform="translate(1 1)">
    <path id="layer1" d="M8.933,0A8.933,8.933,0,1,1,0,8.933,8.933,8.933,0,0,1,8.933,0Z" transform="translate(8.933 0)" fill="#d82929"/>
    <path id="layer1-2" data-name="layer1" d="M49.9,22H43.523L35.866,34.761,28.209,22H21.828A3.828,3.828,0,0,0,18,25.828V46.247a3.828,3.828,0,0,0,3.828,3.828h3.828V69.217a3.828,3.828,0,0,0,3.828,3.828H42.247a3.828,3.828,0,0,0,3.828-3.828V50.075H49.9a3.828,3.828,0,0,0,3.828-3.828V25.828A3.828,3.828,0,0,0,49.9,22Z" transform="translate(-18 3.523)" fill="#d82929"/>
    <path id="opacity" d="M35.866,19.866a8.933,8.933,0,0,0,2.552-.383,8.933,8.933,0,0,1,0-17.1,8.933,8.933,0,1,0-2.552,17.483Zm-5.1,54.874V55.6H26.933A3.828,3.828,0,0,1,23.1,51.769V31.351a3.828,3.828,0,0,1,3.828-3.828h-5.1A3.828,3.828,0,0,0,18,31.351V51.769A3.828,3.828,0,0,0,21.828,55.6h3.828V74.74a3.828,3.828,0,0,0,3.828,3.828h5.1a3.828,3.828,0,0,1-3.828-3.828Z" transform="translate(-18 -2)" fill="#000064" opacity="0.15"/>
    <circle id="stroke" cx="8.933" cy="8.933" r="8.933" stroke-width="2" transform="translate(8.933 0)" stroke="#2e4369" stroke-linecap="round" stroke-linejoin="round" fill="none"/>
    <path id="stroke-2" data-name="stroke" d="M49.9,22H43.523L35.866,34.761,28.209,22H21.828A3.828,3.828,0,0,0,18,25.828V46.247a3.828,3.828,0,0,0,3.828,3.828h3.828V69.217a3.828,3.828,0,0,0,3.828,3.828H42.247a3.828,3.828,0,0,0,3.828-3.828V50.075H49.9a3.828,3.828,0,0,0,3.828-3.828V25.828A3.828,3.828,0,0,0,49.9,22Z" transform="translate(-18 3.523)" fill="none" stroke="#2e4369" stroke-linecap="round" stroke-linejoin="round" stroke-width="2"/>
  </g>
</svg>
