<svg xmlns="http://www.w3.org/2000/svg" width="130" height="130" viewBox="0 0 130 130">
  <g id="그룹_1763" data-name="그룹 1763" transform="translate(4427 13708)">
    <rect id="사각형_2320" data-name="사각형 2320" width="130" height="130" transform="translate(-4427 -13708)" fill="none"/>
    <g id="businessman-3068_fe500ab0-6f7e-4677-857b-f6b54ed016bb" transform="translate(-4398 -13679)">
      <path id="layer4" d="M26.48,45.2c-.113,2.04-1.247,4.647-11.333,6.573C2,54.267,2,64.24,2,64.24H70s0-9.747-14.053-12.467c-9.633-1.813-11.107-4.307-11.333-6.46" transform="translate(0 5.76)" fill="#ebebeb"/>
      <path id="layer3" d="M39.6,63.6,32.8,50,26,63.6Z" transform="translate(3.2 6.4)" fill="#d82929"/>
      <path id="layer2" d="M49.693,17.933S49.127,10,40.627,10s-9.067,8.84-22.213,9.067v2.267c-3.4,0-3.513,4.307-3.513,5.327s.68,8.273,4.193,8.273a20.4,20.4,0,0,0,6.12,10.313v3.287c0,.453-.227.907-.227,1.36l9.52,5.44,8.387-5.327V44.793a20.74,20.74,0,0,0,5.893-9.86c3.4,0,4.42-7.14,4.42-8.273s.34-5.213-3.06-5.327V17.82Z" transform="translate(1.72 1.067)" fill="#e8d4d4"/>
      <path id="layer1" d="M49.28,19h.453v-.567C49.733,6.533,41.347,2,33.867,2S18,6.533,18,18.32v1.813c13.147-.227,13.26-9.067,22.213-9.067S49.28,19,49.28,19Z" transform="translate(2.133 0)" fill="#a06b5f"/>
      <path id="opacity" d="M25.8,58.667,29.2,53l3.4,1.133a16.887,16.887,0,0,0,6.8-6.8c-15.867,3.4-15.867-20.4-13.6-26.067C25.8,15.6,25.8,2,36,2,28.52,2,20.133,6.533,20.133,18.32V22.4c-3.4,0-3.513,4.307-3.513,5.327S17.3,36,20.813,36a20.4,20.4,0,0,0,6.12,10.313V49.6a4.307,4.307,0,0,1-.227,1.133H26.48c-.113,2.267-1.247,4.76-11.333,6.687C2,59.913,2,70,2,70H9.933c0-2.267,1.133-6.8,5.667-6.8a16.433,16.433,0,0,0,6.8-1.133L29.2,70l2.267-5.667Z" fill="#000064" opacity="0.15"/>
      <path id="stroke" d="M35.547,2C28.067,2,19.68,6.533,19.68,18.32V22.4c-3.4,0-3.287,4.307-3.287,5.327S17.187,36,20.7,36a19.493,19.493,0,0,0,8.16,11.673m13.487,0A19.493,19.493,0,0,0,50.507,36c3.4,0,4.193-7.14,4.193-8.273s.113-5.327-3.287-5.327V18.32C51.413,6.533,43.027,2,35.547,2M26.48,50.96c-.113,2.04-1.247,4.647-11.333,6.573C2,60.027,2,70,2,70H70s0-9.747-14.053-12.467c-9.633-1.813-11.107-4.307-11.333-6.46" transform="translate(0 0)" fill="none" stroke="#2e4369" stroke-linecap="round" stroke-linejoin="round" stroke-width="2"/>
      <path id="stroke-2" data-name="stroke" d="M27.12,68.933l6.8-13.6,6.8,13.6m-11.333-4.76L20.32,54.427m18.02,9.747,9.18-9.407M17.6,19.067C31.2,19.067,31.2,10,40.267,10s9.067,7.933,9.067,7.933m-24.48,27.2v3.4c0,.453-.227.907-.227,1.36l9.52,5.44,8.387-5.327V45.02" transform="translate(2.08 1.067)" fill="none" stroke="#2e4369" stroke-linecap="round" stroke-linejoin="round" stroke-width="2"/>
    </g>
  </g>
</svg>
