<svg xmlns="http://www.w3.org/2000/svg" width="130" height="130" viewBox="0 0 130 130">
  <g id="그룹_1777" data-name="그룹 1777" transform="translate(2172 13708)">
    <rect id="사각형_2333" data-name="사각형 2333" width="130" height="130" transform="translate(-2172 -13708)" fill="none"/>
    <g id="money-box-2644_b9996c1b-fba2-4f35-913a-e9e1bf7a2bba" transform="translate(-2146.5 -13682)">
      <path id="layer3" d="M73.259,41.688a8.632,8.632,0,0,1-3.808-1.269c-.508-.635-2.031-5.966-4.824-10.155a14.852,14.852,0,0,1,5.2-6.6c-3.554-1.777-7.236-2.92-14.471-2.031a37.194,37.194,0,0,0-8-1.523,12.821,12.821,0,0,1-7.109,2.666A10.155,10.155,0,0,1,32.892,19.6a26.658,26.658,0,0,0-9.013,2.666C13.85,27.6,12.2,36.229,12.2,42.957s3.047,16.629,13.837,25.388H35.43V63.268l11.044.635a28.944,28.944,0,0,0,2.92,4.443H58.28V60.729a62.837,62.837,0,0,0,7.49-6.347c3.681.381,7.363-2.539,8.759-11.044C74.528,42.069,73.894,41.688,73.259,41.688Z" transform="translate(2.613 3.664)" fill="#ebebeb"/>
      <circle id="layer2" cx="10.155" cy="10.155" r="10.155" transform="translate(32.966 6)" fill="#fc6"/>
      <circle id="layer1" cx="1.269" cy="1.269" r="1.269" transform="translate(59.624 40.274)" fill="#7b8baf"/>
      <path id="패스_601" data-name="패스 601" d="M27.841,25.185l4.7,1.4a25.515,25.515,0,0,1,16.122-.127,22.469,22.469,0,0,0,3.554-5.712,22.6,22.6,0,0,0-4.951-.635,12.821,12.821,0,0,1-7.109,2.666A10.155,10.155,0,0,1,32.792,19.6a26.658,26.658,0,0,0-9.013,2.666C13.75,27.6,12.1,36.229,12.1,42.957s3.047,16.5,13.837,25.388h2.539c-2.158-3.808-8.124-15.868-8.124-25.388a24.246,24.246,0,0,1,7.49-17.772Zm21.58,43.16h8.886V60.729a62.836,62.836,0,0,0,7.49-6.347c3.174.254,6.474-1.9,8.251-8.251-2.285,1.9-6.093,4.443-9.394,4.443C60.846,54.382,55.768,62,35.457,63.268L46.5,63.9a28.943,28.943,0,0,0,2.92,4.443Z" transform="translate(2.586 3.664)" fill="#000064" opacity="0.15"/>
      <path id="stroke" d="M33.192,19.5a26.785,26.785,0,0,0-9.013,2.793C14.15,27.624,12.5,36.256,12.5,42.984s2.92,16.629,13.71,25.388h9.267V63.295l11.3.635a25.515,25.515,0,0,0,2.92,4.443H58.2V60.756a60.8,60.8,0,0,0,7.617-6.347c3.681.381,7.49-2.539,8.886-11.044,0-1.269-.635-1.65-1.269-1.65a8.632,8.632,0,0,1-3.808-1.269c-.508-.635-2.031-5.966-4.824-10.155a14.852,14.852,0,0,1,5.2-6.6c-3.554-1.777-7.236-3.047-14.471-2.285-1.9-.381-5.078-1.142-8.124-1.65" transform="translate(2.694 3.637)" fill="none" stroke="#2e4369" stroke-linecap="round" stroke-linejoin="round" stroke-width="2"/>
      <circle id="stroke-2" data-name="stroke" cx="10.155" cy="10.155" r="10.155" transform="translate(32.966 6)" stroke-width="2" stroke="#2e4369" stroke-linecap="round" stroke-linejoin="round" fill="none"/>
      <path id="stroke-3" data-name="stroke" d="M15.194,41.766C11.513,41.386,2.5,39.989,2.5,44.305s2.412,4.316,4.824,3.3S12.782,40.624,2.5,36.689m32.624-11.3a25.515,25.515,0,0,1,16.122-.127" transform="translate(0 4.855)" fill="none" stroke="#2e4369" stroke-linecap="round" stroke-linejoin="round" stroke-width="2"/>
      <circle id="stroke-4" data-name="stroke" cx="1.269" cy="1.269" r="1.269" transform="translate(59.624 40.274)" stroke-width="2" stroke="#2e4369" stroke-linecap="round" stroke-linejoin="round" fill="none"/>
    </g>
  </g>
</svg>
