<svg xmlns="http://www.w3.org/2000/svg" width="130" height="130" viewBox="0 0 130 130">
  <g id="그룹_1778" data-name="그룹 1778" transform="translate(1991 13708)">
    <rect id="사각형_2334" data-name="사각형 2334" width="130" height="130" transform="translate(-1991 -13708)" fill="none"/>
    <g id="pay-2643_6b69fbe5-3747-4248-bfdd-05701370defd" transform="translate(-1964.998 -13682.001)">
      <path id="layer3" d="M52,37H64.416V64.314H52Z" transform="translate(12.08 8.213)" fill="#d82929"/>
      <circle id="layer2" cx="9.933" cy="9.933" r="9.933" transform="translate(31.867 3.001)" fill="#fc6"/>
      <circle id="layer2-2" data-name="layer2" cx="9.933" cy="9.933" r="9.933" transform="translate(14.426 25.35)" fill="#fc6"/>
      <path id="layer1" d="M44.277,56.382H31.861a4.966,4.966,0,1,1,0-9.933h4.966C51.663,46.45,46.7,39,64.079,39V59.1c-2.483,0-18.546,7.217-27.315,7.217-5.264,0-9.869-2.694-19.865-7.45C12.156,56.606,2,50.655,2,46.45c0-4.966,13.525,1.32,24.9,4.966" transform="translate(0 8.697)" fill="#ffd4c7"/>
      <path id="opacity" d="M64.08,53.02c-2.483,0-18.546,7.217-27.315,7.217-5.264,0-9.869-2.694-19.865-7.45C13.285,51.067,6.54,47.2,3.529,43.6A1.656,1.656,0,0,0,2,45.338C2,49.545,12.157,55.5,16.9,57.754c10,4.755,14.6,7.45,19.865,7.45,8.769,0,24.832-7.216,27.315-7.216V62.72H76.5V57.754H64.08Z" transform="translate(0 9.808)" fill="#000064" opacity="0.15"/>
      <path id="stroke" d="M64.079,37H76.5V64.314H64.079Zm0,22.584c-2.483,0-18.546,7.217-27.315,7.217C31.5,66.8,26.9,64.1,16.9,59.349,12.156,57.09,2,51.139,2,46.933c0-4.966,13.525,1.32,24.9,4.966" transform="translate(0 8.213)" fill="none" stroke="#2e4369" stroke-linecap="round" stroke-linejoin="round" stroke-width="2"/>
      <circle id="stroke-2" data-name="stroke" cx="9.933" cy="9.933" r="9.933" transform="translate(31.867 3.001)" stroke-width="2" stroke="#2e4369" stroke-linecap="round" stroke-linejoin="round" fill="none"/>
      <circle id="stroke-3" data-name="stroke" cx="9.933" cy="9.933" r="9.933" transform="translate(14.426 25.35)" stroke-width="2" stroke="#2e4369" stroke-linecap="round" stroke-linejoin="round" fill="none"/>
      <path id="stroke-4" data-name="stroke" d="M39.433,56.382H27.017a4.966,4.966,0,1,1,0-9.933h4.966C46.819,46.45,41.81,39,59.192,39" transform="translate(4.844 8.697)" fill="none" stroke="#2e4369" stroke-linecap="round" stroke-linejoin="round" stroke-width="2"/>
    </g>
  </g>
</svg>
