<svg xmlns="http://www.w3.org/2000/svg" width="130" height="130" viewBox="0 0 130 130">
  <g id="그룹_2452" data-name="그룹 2452" transform="translate(-916 -460)">
    <g id="Orion_diploma" transform="translate(947.267 478.982)">
      <path id="layer2" d="M42.464,4.918,49.354,1l4.7,6.385,7.889-.777,1.7,7.742,7.518,2.505-1.593,7.76,5.857,5.347-4.618,6.445L73.99,43.67l-6.84,4.008L67.1,55.6l-7.881.886-3.277,7.217-7.553-2.4-5.926,5.269-5.926-5.269-7.553,2.4L25.707,56.49,17.826,55.6l-.049-7.926L10.938,43.67l3.174-7.263L9.5,29.962l5.851-5.347-1.593-7.76,7.518-2.505,1.7-7.742,7.892.777L35.573,1Z" transform="translate(-8.733 -1)" fill="#d82929"/>
      <circle id="layer1" cx="18.4" cy="18.4" r="18.4" transform="translate(15.33 13.8)" fill="#ebf5ff"/>
      <path id="layer1-2" data-name="layer1" d="M29.251,44.617,25.974,37.4l-5.4-.606L9,65.432l13.423-1.665L30.85,74.121,40.709,45.69,36.8,42.219l-7.553,2.4Zm35.632-7.823-5.4.606L56.21,44.617l-7.553-2.4-3.9,3.468,9.862,28.434,8.427-10.355,13.423,1.665Z" transform="translate(-9 18.09)" fill="#ebf5ff"/>
      <path id="opacity" d="M31.794,11.1c-1.628.366-1.918,1.625,2.436,5.98,9,9,5.5,24.236,9.248,20.347A16.842,16.842,0,0,0,31.794,11.1Z" transform="translate(2.57 4.387)" fill="#fff" opacity="0.15"/>
      <path id="opacity-2" data-name="opacity" d="M54.733,68.733,59.333,58l8.047-1.15-2.76-6.833-5.4.613,7.883-.886V48.59L67,48.8H57.8l-3.067,4.6L41.042,51.879l-.109-.012.109.012c1.118.109,10.98.632,16.758-13.812-10.733,4.6-21.467,4.6-26.067-1.533s-4.6-18.4,0-24.533c-6.133,3.067-13.8,13.8-9.2,29.133-4.043-2.7-5.718-13.677-8.145-21.5L9.5,24.095l4.612,6.44L10.938,37.8l6.842,4.014.048,7.926,7.883.886-5.4-.613L17.084,58H21l6.133,7.667L34.8,64.133l3.113,2.075,2.53-7.288,2.024,1.791,2.024-1.8,2.913,8.4,2.729-1.641Z" transform="translate(-8.733 4.867)" fill="#000064" opacity="0.15"/>
      <path id="stroke" d="M20.578,36.794,9,65.432l13.423-1.665L30.85,74.121l9.859-28.433m24.173-8.895L76.467,65.432,63.044,63.767,54.617,74.121,44.754,45.686" transform="translate(-9 18.09)" fill="none" stroke="#2e4369" stroke-linecap="round" stroke-linejoin="round" stroke-width="2"/>
      <circle id="stroke-2" data-name="stroke" cx="18.4" cy="18.4" r="18.4" transform="translate(15.33 13.8)" stroke-width="2" stroke="#2e4369" stroke-linecap="round" stroke-linejoin="round" fill="none"/>
      <path id="stroke-3" data-name="stroke" d="M42.464,4.918,49.354,1l4.7,6.385,7.889-.777,1.7,7.742,7.518,2.505-1.593,7.76,5.857,5.347-4.618,6.445L73.99,43.67l-6.84,4.008L67.1,55.6l-7.881.886-3.277,7.217-7.553-2.4-5.926,5.269-5.926-5.269-7.553,2.4L25.707,56.49,17.826,55.6l-.049-7.926L10.938,43.67l3.174-7.263L9.5,29.962l5.851-5.347-1.593-7.76,7.518-2.505,1.7-7.742,7.892.777L35.573,1Z" transform="translate(-8.733 -1)" fill="none" stroke="#2e4369" stroke-linecap="round" stroke-linejoin="round" stroke-width="2"/>
    </g>
    <circle id="타원_80" data-name="타원 80" cx="65" cy="65" r="65" transform="translate(916 460)" fill="none"/>
  </g>
</svg>
