<svg xmlns="http://www.w3.org/2000/svg" width="66.986" height="66.986" viewBox="0 0 66.986 66.986">
  <g id="shipping-box-2665_480587ac-4d88-4cc7-b2a5-cfd844ffd446" transform="translate(1 1)">
    <path id="layer2" d="M66.986,16.405,34.493,2,2,16.405V52.581L34.493,66.986,66.986,52.581Z" transform="translate(-2 -2)" fill="#fc9"/>
    <path id="layer1" d="M55,31.6,42,37.34V49.58l13-5.74Z" transform="translate(1.324 0.46)" fill="#d82929"/>
    <path id="opacity" d="M66.878,16.405,34.493,2,2,16.405,34.385,30.811Z" transform="translate(-2 -2)" fill="#fff" opacity="0.25"/>
    <path id="opacity-2" data-name="opacity" d="M2,15.3V51.476L34.493,65.881l-.108-36.176Z" transform="translate(-2 -0.895)" fill="#000064" opacity="0.15"/>
    <path id="stroke" d="M66.986,16.405,34.493,2,2,16.405V52.581L34.493,66.986,66.986,52.581Z" transform="translate(-2 -2)" fill="none" stroke="#2e4369" stroke-linecap="round" stroke-linejoin="round" stroke-width="2"/>
    <path id="stroke-2" data-name="stroke" d="M2,15.907,34.493,30.312,66.986,15.907M19.763,8,52.256,22.405M34.493,30.312V66.488M58.321,33.561l-13,5.74V51.541l13-5.74Z" transform="translate(-2 -1.501)" fill="none" stroke="#2e4369" stroke-linecap="round" stroke-linejoin="round" stroke-width="2"/>
  </g>
</svg>
