<svg xmlns="http://www.w3.org/2000/svg" width="130" height="130" viewBox="0 0 130 130">
  <g id="그룹_1768" data-name="그룹 1768" transform="translate(3533 13708)">
    <rect id="사각형_2325" data-name="사각형 2325" width="130" height="130" transform="translate(-3533 -13708)" fill="none"/>
    <g id="configuration-5976_7b9e8f7e-e2cc-4b05-8381-75065854767e" transform="translate(-3503.998 -13678.871)">
      <path id="layer3" d="M31.223,32.186,13.53,49.879l-5.92,1.11-5,11.282,2.257,2.257L16.43,59.808l1.161-5.972L35.232,36.2l-4.009-4.009Z" transform="translate(0.079 3.902)" fill="#9b9b9b"/>
      <path id="layer2" d="M52.051,4.362,36.727,19.687a8.436,8.436,0,0,0-2.37,4.686l-7.394,5.133a3.048,3.048,0,0,0-.494,4.773L34.1,41.907a3.048,3.048,0,0,0,4.773-.494L43.94,34.1a8.44,8.44,0,0,0,4.821-2.388L64.079,16.39A8.5,8.5,0,1,0,52.051,4.362Z" transform="translate(3.03 0)" fill="#d82929"/>
      <path id="layer1" d="M66.137,51.691A13.245,13.245,0,0,0,51.163,39.407,4.454,4.454,0,0,1,47.4,38.191l-5.644-5.644-3.42,4.913a3.048,3.048,0,0,1-4.773.494l-1.806-1.806-2.1,2.1,8.872,8.872a4.492,4.492,0,0,1,1.242,3.769,13.02,13.02,0,0,0-.106,1.655,13.159,13.159,0,0,0,15.248,13.08l-5.644-8.94a1.467,1.467,0,0,1,.113-1.729l2.709-3.245a1.467,1.467,0,0,1,.727-.473l3.612-1.031a1.467,1.467,0,0,1,1.682.684l5.455,9.525a13.173,13.173,0,0,0,2.574-8.726Z" transform="translate(3.56 3.949)" fill="#c5c5c5"/>
      <path id="opacity" d="M39.462,46.491l5.071-7.311a8.545,8.545,0,0,0,2.89-.972c-.008-.008-.018-.012-.027-.02l-5.644-5.644-3.419,4.917a3.048,3.048,0,0,1-4.773.494l-1.806-1.806-2.1,2.1,8.872,8.872c.062.062.1.138.159.2a2.9,2.9,0,0,0,.777-.835Z" transform="translate(3.56 3.949)" fill="#000064" opacity="0.2"/>
      <path id="layer1-2" data-name="layer1" d="M29.493,34.263a3.048,3.048,0,0,1,.494-4.773l4.922-3.414-5.286-5.286a4.474,4.474,0,0,1-1.242-3.78A13.248,13.248,0,0,0,15.25,2c-.382,0-.756.026-1.129.056l4.973,7.871a1.467,1.467,0,0,1-.113,1.729L16.273,14.9a1.467,1.467,0,0,1-.728.474l-3.612,1.031a1.467,1.467,0,0,1-1.682-.684L5.111,6.728a13.24,13.24,0,0,0,7.224,21.446,13.085,13.085,0,0,0,4.547.226,4.527,4.527,0,0,1,3.8,1.242L29.2,38.169l2.1-2.1Z" transform="translate(0 0.017)" fill="#c5c5c5"/>
      <path id="opacity-2" data-name="opacity" d="M24.573,39.606,28.4,35.783l4.009,4.009-3.823,3.823ZM60.046,14.127,43.115,31.058c-1.129,1.129-3.386,2.257-4.515,4.515s-5.617,5.052-6.194,4.219L34.211,41.6a3.048,3.048,0,0,0,4.773-.494l5.071-7.311A8.44,8.44,0,0,0,48.877,31.4L64.2,16.084a8.525,8.525,0,0,0,.17-11.838C65.329,6.58,64.2,9.977,60.046,14.127Z" transform="translate(2.906 0.306)" fill="#000064" opacity="0.2"/>
      <path id="stroke" d="M31.223,32.186,13.53,49.879l-5.92,1.11-5,11.282,2.257,2.257L16.43,59.808l1.161-5.972L35.232,36.2" transform="translate(0.079 3.902)" fill="none" stroke="#2e4369" stroke-linecap="round" stroke-linejoin="round" stroke-miterlimit="10" stroke-width="2"/>
      <path id="stroke-2" data-name="stroke" d="M52.051,4.362,36.727,19.687a8.436,8.436,0,0,0-2.37,4.686l-7.394,5.133a3.048,3.048,0,0,0-.494,4.773L34.1,41.907a3.048,3.048,0,0,0,4.773-.494L43.94,34.1a8.44,8.44,0,0,0,4.821-2.388L64.079,16.39A8.5,8.5,0,1,0,52.051,4.362Z" transform="translate(3.03 0)" fill="none" stroke="#2e4369" stroke-linecap="round" stroke-linejoin="round" stroke-miterlimit="10" stroke-width="2"/>
      <path id="stroke-3" data-name="stroke" d="M34.909,26.076,29.624,20.79a4.474,4.474,0,0,1-1.242-3.78A13.248,13.248,0,0,0,15.25,2c-.382,0-.756.026-1.129.058l4.973,7.871a1.467,1.467,0,0,1-.113,1.729L16.273,14.9a1.467,1.467,0,0,1-.728.473l-3.612,1.031a1.467,1.467,0,0,1-1.682-.684L5.111,6.728a13.24,13.24,0,0,0,7.224,21.446,13.085,13.085,0,0,0,4.547.226,4.527,4.527,0,0,1,3.8,1.242L29.2,38.169m4.012,4.014,8.872,8.872a4.492,4.492,0,0,1,1.242,3.769A13.17,13.17,0,0,0,58.469,69.558l-5.644-8.94a1.467,1.467,0,0,1,.113-1.729l2.709-3.245a1.467,1.467,0,0,1,.727-.473l3.612-1.031a1.467,1.467,0,0,1,1.682.684l5.455,9.525a13.239,13.239,0,0,0-12.4-21.01,4.453,4.453,0,0,1-3.767-1.218l-5.644-5.644" transform="translate(0 0.017)" fill="none" stroke="#2e4369" stroke-linecap="round" stroke-linejoin="round" stroke-miterlimit="10" stroke-width="2"/>
    </g>
  </g>
</svg>
