<svg xmlns="http://www.w3.org/2000/svg" width="24.588" height="24.588" viewBox="0 0 24.588 24.588">
  <defs>
    <style>
      .cls-1 {
        fill: none;
        stroke: #424242;
        stroke-linecap: round;
        stroke-linejoin: round;
      }
    </style>
  </defs>
  <g id="Email" transform="translate(-326.5 -53.5)">
    <path id="layer1" class="cls-1" d="M15.366,20.084v3.931a1.573,1.573,0,0,1-1.573,1.573H3.573A1.573,1.573,0,0,1,2,24.015V3.573A1.573,1.573,0,0,1,3.573,2H13.794a1.573,1.573,0,0,1,1.573,1.573V5.145M2,5.145H15.366M2,20.084H15.366" transform="translate(325 52)"/>
    <path id="layer2" class="cls-1" d="M28,18H41.366v8.649H28Z" transform="translate(309.221 42.29)"/>
    <path id="layer2-2" data-name="layer2" class="cls-1" d="M28,18l6.683,5.5L41.366,18" transform="translate(309.221 42.29)"/>
    <circle id="layer1-2" data-name="layer1" class="cls-1" cx="0.393" cy="0.393" r="0.393" transform="translate(333.29 74.443)"/>
  </g>
</svg>
