<svg xmlns="http://www.w3.org/2000/svg" width="14" height="14" viewBox="0 0 14 14">
  <defs>
    <style>
      .cls-1 {
        fill: #ed1b24;
      }
    </style>
  </defs>
  <g id="Temp_Radio_Selected" transform="translate(-617 -240)">
    <path id="Selection_Control_Radio_On_Enabled" data-name="Selection Control / Radio / On / Enabled" class="cls-1" d="M12-384a7,7,0,0,0-7,7,7,7,0,0,0,7,7,7,7,0,0,0,7-7A7,7,0,0,0,12-384Zm0,12.6A5.6,5.6,0,0,1,6.4-377a5.6,5.6,0,0,1,5.6-5.6,5.6,5.6,0,0,1,5.6,5.6A5.6,5.6,0,0,1,12-371.4Zm0-2.1a3.5,3.5,0,0,0,3.5-3.5,3.5,3.5,0,0,0-3.5-3.5A3.5,3.5,0,0,0,8.5-377,3.5,3.5,0,0,0,12-373.5Z" transform="translate(612 624)"/>
  </g>
</svg>
