<svg xmlns="http://www.w3.org/2000/svg" width="14" height="14" viewBox="0 0 14 14">
  <defs>
    <style>
      .cls-1 {
        fill: #d2d2d2;
      }

      .cls-2 {
        fill: #767171;
      }
    </style>
  </defs>
  <g id="Temp_Radio_Disabled" transform="translate(-977 -265)">
    <circle id="타원_97" data-name="타원 97" class="cls-1" cx="6" cy="6" r="6" transform="translate(978 266)"/>
    <g id="그룹_1282" data-name="그룹 1282">
      <path id="Selection_Control_Radio_On_Enabled" data-name="Selection Control / Radio / On / Enabled" class="cls-2" d="M12-384a7,7,0,0,0-7,7,7,7,0,0,0,7,7,7,7,0,0,0,7-7A7,7,0,0,0,12-384Zm0,12.6A5.6,5.6,0,0,1,6.4-377a5.6,5.6,0,0,1,5.6-5.6,5.6,5.6,0,0,1,5.6,5.6A5.6,5.6,0,0,1,12-371.4Z" transform="translate(972 649)"/>
    </g>
  </g>
</svg>
